<?xml version="1.0" encoding="UTF-8"?>
<svg id="Layer_1" xmlns="http://www.w3.org/2000/svg" viewBox="0 0 706.56 283.46">
  <defs>
    <style>
      .cls-1 {
        fill: none;
        stroke: #cc182c;
        stroke-miterlimit: 10;
        stroke-width: 1.42px;
      }

      .cls-2 {
        fill: #fff;
      }

      .cls-3 {
        fill: #cc182c;
      }

      .cls-4 {
        fill: #002469;
      }
    </style>
  </defs>
  <polygon class="cls-2" points="253 154.87 229.05 154.87 229.05 141.61 218.12 141.61 218.12 179.14 229.05 179.14 229.05 163.94 253 163.94 253 179.14 263.93 179.14 263.93 141.61 253 141.61 253 154.87"/>
  <path class="cls-2" d="M313.45,145.67c-2.18-1.64-4.87-2.9-7.97-3.74-3.08-.83-6.59-1.25-10.42-1.25s-7.35.42-10.45,1.25c-3.12.84-5.82,2.1-8.02,3.74-2.22,1.66-3.95,3.74-5.15,6.21-1.2,2.46-1.81,5.33-1.81,8.53s.61,6.07,1.81,8.53c1.2,2.46,2.93,4.55,5.15,6.21,2.2,1.64,4.9,2.9,8.02,3.74,3.1.83,6.62,1.25,10.45,1.25s7.34-.42,10.42-1.25c3.1-.84,5.79-2.09,7.97-3.74,2.2-1.65,3.92-3.74,5.1-6.21,1.18-2.46,1.78-5.33,1.78-8.52s-.6-6.07-1.78-8.52c-1.18-2.46-2.9-4.55-5.1-6.21M295.06,171.21c-1.93,0-3.66-.15-5.12-.45-1.45-.3-2.72-.71-3.77-1.23-1.04-.51-1.92-1.12-2.62-1.8-.7-.68-1.26-1.42-1.68-2.21-.42-.79-.71-1.63-.89-2.49-.18-.88-.27-1.76-.27-2.63s.09-1.71.27-2.58c.18-.86.47-1.69.89-2.48.41-.79.98-1.54,1.68-2.23.7-.69,1.58-1.3,2.62-1.82,1.05-.53,2.32-.94,3.77-1.24,1.46-.3,3.19-.45,5.12-.45,2.88,0,5.27.33,7.12.98,1.82.64,3.28,1.49,4.32,2.5,1.04,1.01,1.77,2.17,2.17,3.43.41,1.29.62,2.61.62,3.91s-.21,2.61-.62,3.91c-.41,1.26-1.13,2.41-2.17,3.42-1.05,1.02-2.5,1.86-4.32,2.5-1.84.65-4.24.98-7.12.98Z"/>
  <path class="cls-2" d="M220.6,100.43c.95.81,2.07,1.53,3.33,2.12,1.24.58,2.57,1.1,3.95,1.54,1.38.44,2.82.82,4.28,1.14,1.46.32,2.89.62,4.24.89,1.35.27,2.66.55,3.87.82,1.19.27,2.25.56,3.14.88.86.3,1.53.66,2.01,1.05.4.33.6.69.6,1.1,0,.26-.1.56-.31.87-.2.31-.65.64-1.29.93-.7.32-1.69.59-2.95.81-1.28.21-2.97.32-5.02.32-3.48,0-6.79-.38-9.83-1.12-3.04-.75-5.79-1.79-8.15-3.11l-1.89-.99,1.09,10.54.35.13c2.37.89,5.13,1.64,8.22,2.24,3.09.6,6.49.9,10.12.9,1.38,0,2.86-.05,4.4-.13,1.55-.09,3.1-.28,4.61-.57,1.53-.29,3-.7,4.38-1.23,1.41-.54,2.67-1.27,3.75-2.17,1.09-.91,1.97-2.04,2.62-3.36.66-1.33.99-2.92.99-4.75,0-1.44-.28-2.75-.85-3.88-.55-1.12-1.33-2.12-2.3-2.98-.96-.84-2.07-1.58-3.33-2.21-1.24-.62-2.57-1.17-3.96-1.64-1.38-.46-2.82-.87-4.29-1.22-1.46-.35-2.89-.67-4.26-.96-1.37-.29-2.66-.57-3.88-.84-1.19-.27-2.26-.56-3.15-.86-.86-.29-1.54-.62-2.02-.98-.39-.29-.58-.6-.58-.96,0-.1.02-.23.07-.37.02-.07.08-.19.26-.35.17-.15.44-.32.78-.48.36-.17.86-.32,1.5-.45.66-.14,1.48-.25,2.46-.34.98-.09,2.18-.13,3.57-.13,1.73,0,3.45.12,5.09.38,1.66.25,3.21.57,4.61.95,1.41.37,2.69.77,3.8,1.19,1.11.42,2.01.79,2.68,1.12l1.87.92-1.09-10.24-.38-.12c-1.15-.37-2.43-.73-3.79-1.07-1.35-.34-2.78-.64-4.24-.9-1.46-.26-2.96-.46-4.46-.6-1.51-.14-2.99-.21-4.41-.21-1.3,0-2.69.05-4.13.16-1.45.11-2.9.31-4.31.59-1.43.29-2.8.7-4.09,1.22-1.31.53-2.49,1.24-3.49,2.1-1.02.87-1.84,1.93-2.43,3.16-.6,1.24-.9,2.72-.9,4.4,0,1.44.29,2.73.86,3.84.56,1.1,1.34,2.07,2.3,2.9"/>
  <polygon class="cls-2" points="301.82 111.45 275.21 111.45 275.21 82.99 264.28 82.99 264.28 120.52 300.73 120.52 301.82 111.45"/>
  <path class="cls-2" d="M309.87,116.52c2.2,1.64,4.9,2.9,8.02,3.74,3.1.83,6.61,1.25,10.45,1.25s7.34-.42,10.42-1.25c3.1-.84,5.79-2.1,7.97-3.74,2.2-1.65,3.91-3.74,5.1-6.21,1.18-2.46,1.78-5.33,1.78-8.52s-.6-6.07-1.78-8.53c-1.18-2.46-2.9-4.55-5.1-6.21-2.18-1.64-4.87-2.9-7.97-3.74-3.08-.83-6.59-1.25-10.42-1.25s-7.35.42-10.45,1.25c-3.12.84-5.82,2.09-8.02,3.74-2.22,1.65-3.95,3.74-5.15,6.2-1.2,2.46-1.81,5.33-1.81,8.53s.61,6.07,1.81,8.53c1.2,2.46,2.93,4.55,5.15,6.21M323.22,91.43c1.46-.3,3.18-.45,5.12-.45,2.88,0,5.27.33,7.11.98,1.83.64,3.28,1.48,4.32,2.5,1.04,1.01,1.77,2.16,2.17,3.42.41,1.29.62,2.61.62,3.91s-.21,2.61-.62,3.91c-.4,1.26-1.13,2.41-2.17,3.42-1.04,1.02-2.5,1.86-4.32,2.5-1.84.65-4.23.98-7.11.98-1.94,0-3.66-.15-5.12-.45-1.45-.3-2.72-.71-3.77-1.23-1.04-.51-1.92-1.11-2.62-1.8-.7-.68-1.26-1.43-1.67-2.21-.42-.79-.72-1.63-.89-2.49-.18-.88-.27-1.76-.27-2.63s.09-1.72.27-2.58c.18-.86.47-1.69.89-2.48.41-.78.98-1.53,1.68-2.23.7-.69,1.58-1.3,2.62-1.82,1.05-.53,2.32-.94,3.77-1.24Z"/>
  <path class="cls-2" d="M183.58,203.19l-53.5,23.33c-2.47,1.07-5.27,1.07-7.73,0l-53.51-23.33c-3.52-1.54-5.8-5.02-5.8-8.86v-119.23c0-5.34,4.33-9.67,9.67-9.67h107.01c5.34,0,9.67,4.33,9.67,9.67v119.23c0,3.85-2.28,7.33-5.8,8.86"/>
  <path class="cls-1" d="M183.58,203.19l-53.5,23.33c-2.47,1.07-5.27,1.07-7.73,0l-53.51-23.33c-3.52-1.54-5.8-5.02-5.8-8.86v-119.23c0-5.34,4.33-9.67,9.67-9.67h107.01c5.34,0,9.67,4.33,9.67,9.67v119.23c0,3.85-2.28,7.33-5.8,8.86Z"/>
  <path class="cls-3" d="M180.97,196.93l-53.33,23.25c-.92.4-1.97.4-2.9,0l-53.33-23.26c-1.32-.58-2.18-1.88-2.18-3.32v-118.24c0-2,1.62-3.62,3.63-3.62h106.67c2,0,3.63,1.62,3.63,3.62v118.24c0,1.44-.85,2.75-2.18,3.32"/>
  <path class="cls-4" d="M183.14,193.6v-8.8l-10.87-6.72v-9.52l-23.29-14.41-39.48,24.46-26.2-16.21-14.08,8.71v22.49c0,1.44.85,2.75,2.18,3.32l54.78,23.89,54.78-23.88c1.32-.57,2.18-1.88,2.18-3.32"/>
  <polygon class="cls-2" points="126.13 136.86 164.67 136.86 164.67 123.54 133.48 123.54 133.48 114.63 126.16 110.16 157.79 110.16 157.79 96.81 133.48 96.81 133.48 78.53 119.3 87.31 119.3 96.81 94.64 96.81 94.64 110.17 119.3 110.17 119.3 123.54 87.65 123.54 87.65 136.91 119.3 136.91 119.3 160.42 133.48 151.64 133.48 141.37 126.13 136.86"/>
  <polygon class="cls-2" points="148.99 154.14 119.82 172.21 119.82 218.04 126.18 220.82 126.18 183.47 148.99 169.35 148.99 154.14"/>
  <polygon class="cls-2" points="164.28 173.14 136.5 190.33 136.5 216.33 142.86 213.55 142.86 201.59 164.28 188.35 164.28 173.14"/>
  <polygon class="cls-2" points="83.3 162.4 109.5 178.61 109.51 213.55 103.15 210.78 103.15 189.87 83.31 177.6 83.3 162.4"/>
  <polygon class="cls-2" points="371.51 141.61 356.46 141.61 337.01 155.02 337.01 141.61 326.03 141.61 326.03 179.14 337.01 179.14 337.01 164.52 356.93 179.14 373.13 179.14 346.21 159.64 371.51 141.61"/>
  <polygon class="cls-2" points="388.35 164.26 413.76 164.26 413.76 155.4 388.35 155.4 388.35 150.46 416.23 150.46 415.15 141.61 377.16 141.61 377.16 179.14 415.52 179.14 416.6 170.28 388.35 170.28 388.35 164.26"/>
  <path class="cls-2" d="M442.13,163.56c0,1.04-.13,2-.4,2.86-.26.83-.7,1.56-1.32,2.17-.63.62-1.48,1.11-2.54,1.46-1.08.36-2.46.54-4.11.54-1.56,0-3.01-.08-4.3-.23-1.3-.16-2.49-.36-3.55-.6-1.06-.24-2.04-.52-2.9-.82-.87-.3-1.69-.61-2.42-.91l-.75-.3.4,9.87c.73.2,1.66.41,2.75.63,1.1.22,2.3.43,3.59.63,1.3.19,2.66.36,4.06.49,1.41.13,2.8.2,4.14.2,2.84,0,5.41-.28,7.64-.83,2.25-.55,4.19-1.43,5.75-2.6,1.58-1.18,2.8-2.71,3.62-4.54.81-1.81,1.23-3.99,1.23-6.48v-23.51h-10.9v21.95Z"/>
  <polygon class="cls-2" points="384.11 120.52 403.23 82.99 391.02 82.99 378.13 109.71 365.21 82.99 353 82.99 371.98 120.52 384.11 120.52"/>
  <polygon class="cls-2" points="446.13 111.67 417.88 111.67 417.88 105.64 443.29 105.64 443.29 96.79 417.88 96.79 417.88 91.85 445.76 91.85 444.67 82.99 406.68 82.99 406.68 120.52 445.04 120.52 446.13 111.67"/>
  <polygon class="cls-2" points="465.46 96.27 489.28 120.52 500.71 120.52 500.71 82.99 489.84 82.99 489.84 107.35 466 82.99 454.54 82.99 454.54 120.52 465.46 120.52 465.46 96.27"/>
  <path class="cls-2" d="M512.23,100.43c.95.81,2.07,1.53,3.33,2.12,1.24.58,2.57,1.1,3.95,1.54,1.38.44,2.82.82,4.28,1.14,1.47.32,2.89.62,4.24.89,1.35.27,2.66.55,3.87.82,1.19.27,2.25.56,3.15.88.86.3,1.53.66,2.01,1.05.4.33.59.69.59,1.1,0,.26-.1.56-.31.87-.2.31-.65.64-1.29.93-.7.32-1.69.59-2.95.81-1.28.21-2.97.32-5.02.32-3.48,0-6.78-.38-9.83-1.12-3.04-.75-5.79-1.79-8.16-3.11l-1.89-.99,1.09,10.54.35.13c2.37.89,5.13,1.64,8.22,2.24,3.09.6,6.49.9,10.12.9,1.38,0,2.86-.05,4.4-.13,1.55-.09,3.1-.28,4.61-.57,1.53-.29,3-.7,4.38-1.23,1.41-.54,2.67-1.27,3.75-2.17,1.09-.91,1.97-2.04,2.62-3.36.66-1.33.98-2.92.98-4.75,0-1.44-.28-2.75-.85-3.88-.55-1.12-1.33-2.12-2.3-2.98-.96-.84-2.07-1.58-3.33-2.21-1.24-.62-2.57-1.17-3.96-1.64-1.38-.46-2.83-.87-4.29-1.22-1.46-.35-2.89-.67-4.26-.96-1.37-.29-2.66-.57-3.88-.84-1.19-.27-2.26-.56-3.15-.86-.86-.29-1.54-.62-2.02-.98-.39-.29-.58-.6-.58-.96,0-.1.02-.23.07-.37.02-.07.08-.19.26-.35.17-.15.44-.32.78-.48.36-.17.86-.32,1.5-.45.66-.14,1.48-.25,2.46-.34.98-.09,2.18-.13,3.57-.13,1.73,0,3.45.12,5.09.38,1.65.25,3.21.57,4.61.95,1.41.37,2.69.77,3.8,1.19,1.11.42,2.01.79,2.68,1.12l1.87.92-1.09-10.24-.38-.12c-1.15-.37-2.43-.73-3.79-1.07-1.35-.34-2.78-.64-4.24-.9-1.46-.26-2.96-.46-4.46-.6-1.51-.14-2.99-.21-4.41-.21-1.3,0-2.69.05-4.13.16-1.45.11-2.9.31-4.31.59-1.42.29-2.8.7-4.09,1.22-1.31.53-2.49,1.24-3.49,2.1-1.02.87-1.83,1.93-2.43,3.16-.6,1.24-.9,2.72-.9,4.4,0,1.44.29,2.73.86,3.84.56,1.1,1.34,2.07,2.3,2.9"/>
  <polygon class="cls-2" points="566.85 105.91 586.76 120.52 602.97 120.52 576.04 101.02 600.73 84.13 618.42 105.29 618.42 120.52 629.32 120.52 629.32 105.29 647.59 82.99 635.14 82.99 623.89 97.33 612.59 82.99 586.3 82.99 566.85 96.4 566.85 82.99 555.87 82.99 555.87 120.52 566.85 120.52 566.85 105.91"/>
  <polygon class="cls-2" points="635.29 75.54 631.28 67.47 617.58 75.45 620.42 80.83 635.29 75.54"/>
</svg>